<svg id="visual" viewBox="0 0 960 300" width="960" height="300" xmlns="http://www.w3.org/2000/svg" xmlns:xlink="http://www.w3.org/1999/xlink" version="1.1"><path d="M0 214L22.8 211.7C45.7 209.3 91.3 204.7 137 203.5C182.7 202.3 228.3 204.7 274 202.7C319.7 200.7 365.3 194.3 411.2 190.2C457 186 503 184 548.8 187.7C594.7 191.3 640.3 200.7 686 203.3C731.7 206 777.3 202 823 204.3C868.7 206.7 914.3 215.3 937.2 219.7L960 224L960 301L937.2 301C914.3 301 868.7 301 823 301C777.3 301 731.7 301 686 301C640.3 301 594.7 301 548.8 301C503 301 457 301 411.2 301C365.3 301 319.7 301 274 301C228.3 301 182.7 301 137 301C91.3 301 45.7 301 22.8 301L0 301Z" fill="#4a3104"></path><path d="M0 200L22.8 204.7C45.7 209.3 91.3 218.7 137 220.8C182.7 223 228.3 218 274 213.8C319.7 209.7 365.3 206.3 411.2 206.7C457 207 503 211 548.8 214.5C594.7 218 640.3 221 686 218C731.7 215 777.3 206 823 207.7C868.7 209.3 914.3 221.7 937.2 227.8L960 234L960 301L937.2 301C914.3 301 868.7 301 823 301C777.3 301 731.7 301 686 301C640.3 301 594.7 301 548.8 301C503 301 457 301 411.2 301C365.3 301 319.7 301 274 301C228.3 301 182.7 301 137 301C91.3 301 45.7 301 22.8 301L0 301Z" fill="#724c06"></path><path d="M0 223L22.8 222.8C45.7 222.7 91.3 222.3 137 227C182.7 231.7 228.3 241.3 274 241.5C319.7 241.7 365.3 232.3 411.2 228.7C457 225 503 227 548.8 227.2C594.7 227.3 640.3 225.7 686 226C731.7 226.3 777.3 228.7 823 227.7C868.7 226.7 914.3 222.3 937.2 220.2L960 218L960 301L937.2 301C914.3 301 868.7 301 823 301C777.3 301 731.7 301 686 301C640.3 301 594.7 301 548.8 301C503 301 457 301 411.2 301C365.3 301 319.7 301 274 301C228.3 301 182.7 301 137 301C91.3 301 45.7 301 22.8 301L0 301Z" fill="#9e6806"></path><path d="M0 261L22.8 260C45.7 259 91.3 257 137 256.7C182.7 256.3 228.3 257.7 274 259.3C319.7 261 365.3 263 411.2 263.5C457 264 503 263 548.8 261.5C594.7 260 640.3 258 686 254.7C731.7 251.3 777.3 246.7 823 246.7C868.7 246.7 914.3 251.3 937.2 253.7L960 256L960 301L937.2 301C914.3 301 868.7 301 823 301C777.3 301 731.7 301 686 301C640.3 301 594.7 301 548.8 301C503 301 457 301 411.2 301C365.3 301 319.7 301 274 301C228.3 301 182.7 301 137 301C91.3 301 45.7 301 22.8 301L0 301Z" fill="#cd8604"></path><path d="M0 282L22.8 282.7C45.7 283.3 91.3 284.7 137 285.2C182.7 285.7 228.3 285.3 274 283.3C319.7 281.3 365.3 277.7 411.2 277.5C457 277.3 503 280.7 548.8 281.5C594.7 282.3 640.3 280.7 686 280.8C731.7 281 777.3 283 823 280.2C868.7 277.3 914.3 269.7 937.2 265.8L960 262L960 301L937.2 301C914.3 301 868.7 301 823 301C777.3 301 731.7 301 686 301C640.3 301 594.7 301 548.8 301C503 301 457 301 411.2 301C365.3 301 319.7 301 274 301C228.3 301 182.7 301 137 301C91.3 301 45.7 301 22.8 301L0 301Z" fill="#fea400"></path></svg>